<svg id="under" xmlns="http://www.w3.org/2000/svg" viewBox="0 0 900 334.21"><defs><style>.cls-1{fill:#fee802;}.cls-2{font-size:48px;font-family:Arial-Black, Arial Black;font-weight:800;}.cls-3{letter-spacing:-0.02em;}</style></defs><title>under-construction</title><polygon class="cls-1" points="0 240.7 900 0 900 93.51 0 334.21 0 240.7"/><text class="cls-2" transform="translate(150.96 268.15) rotate(-15.15)">UNDER CONST<tspan class="cls-3" x="391.94" y="0">R</tspan><tspan x="428.46" y="0">UCTION</tspan></text><path d="M78.4,430.93l-8.8,2.49V437l7.51,29.83,10.27-2.78Z" transform="translate(-69.6 -159.21)"/><path d="M89,445.89q-2.19-8.13,1.1-13.87t11.38-7.94q8.28-2.24,14,1t7.85,11.24a21.21,21.21,0,0,1,.63,10.07,14.47,14.47,0,0,1-4.09,7.32,19.35,19.35,0,0,1-8.66,4.57,22,22,0,0,1-9.77.72,14.4,14.4,0,0,1-7.49-4A19.46,19.46,0,0,1,89,445.89Zm10.26-2.73c.91,3.35,2.19,5.58,3.82,6.71a7.32,7.32,0,0,0,10.21-2.71c.82-1.76.72-4.5-.28-8.21-.85-3.12-2.09-5.23-3.74-6.33a6.67,6.67,0,0,0-5.71-.77,6.43,6.43,0,0,0-4.38,3.54Q97.84,438.09,99.21,443.16Z" transform="translate(-69.6 -159.21)"/><path d="M124.41,418.47l9.57-2.6,17.46,15-5-18.35,9.66-2.61,9,33.16-9.66,2.62L138.1,430.81,143,449l-9.64,2.61Z" transform="translate(-69.6 -159.21)"/><path d="M907.94,206.46l10.22-2.77,5.35,19.76a17.21,17.21,0,0,1,.59,5.79,12.47,12.47,0,0,1-1.64,5.35,11.87,11.87,0,0,1-3.36,3.86,21.44,21.44,0,0,1-6.87,3.05,48.54,48.54,0,0,1-5.38,1.09,14.42,14.42,0,0,1-5.15-.05,12.35,12.35,0,0,1-4.29-1.91,10.87,10.87,0,0,1-3.22-3.23,20.44,20.44,0,0,1-2.46-5.35l-5.35-19.76,10.22-2.76,5.48,20.23a6,6,0,0,0,2.65,3.83,6.71,6.71,0,0,0,8.33-2.24,6,6,0,0,0,.35-4.66Z" transform="translate(-69.6 -159.21)"/><path d="M925,201.83l9.56-2.59,17.46,15-5-18.35,9.66-2.62,9,33.17L956.05,229,938.7,214.18l4.93,18.21L934,235Z" transform="translate(-69.6 -159.21)"/></svg>