<svg id="Layer_1" data-name="Layer 1" xmlns="http://www.w3.org/2000/svg" xmlns:xlink="http://www.w3.org/1999/xlink" viewBox="0 0 1127.26 1096.14"><defs><style>.cls-1{fill:url(#linear-gradient);}.cls-2,.cls-4{fill:#333768;}.cls-2,.cls-3{opacity:0.88;}.cls-2{isolation:isolate;}.cls-5{opacity:0.2;}</style><linearGradient id="linear-gradient" x1="-33.04" y1="892.42" x2="1160.3" y2="203.44" gradientTransform="matrix(1, 0, 0, -1, 0, 1096)" gradientUnits="userSpaceOnUse"><stop offset="0.12" stop-color="#d16ba5"/><stop offset="0.51" stop-color="#86a8e7"/><stop offset="0.88" stop-color="#5ffbf1"/></linearGradient></defs><title>C_new</title><g id="Layer_1-2" data-name="Layer 1-2"><rect class="cls-1" width="1127.26" height="1096.14" rx="200"/><path class="cls-2" d="M347.86,581.13c10.36-2.22,21.46-6.66,31.82-8.88,8.82-2.3,17.64-3.41,26.05-5.38q-.89-9.43-.9-19A198.48,198.48,0,0,1,463.35,406.6a203,203,0,0,1,25.19-21.38C503.28,346.4,525,311.31,557.25,283a353.39,353.39,0,0,1,99-61.11,333,333,0,0,0-51.62-4c-182.43.15-330.19,148.17-330,330.6A330.08,330.08,0,0,0,282,617.78C299.37,599.88,321.46,586.33,347.86,581.13Z"/><g class="cls-3"><path class="cls-4" d="M488.54,385.19a200,200,0,0,1,277.08,44.33,266.12,266.12,0,0,1,86.65-99.75q-6.9-7.83-14.32-15.28a329.44,329.44,0,0,0-181.72-92.65,353.39,353.39,0,0,0-99,61.11C525,311.31,503.28,346.4,488.54,385.19Z"/><g class="cls-5"><path d="M488.54,385.19a200,200,0,0,1,277.08,44.33,266.12,266.12,0,0,1,86.65-99.75q-6.9-7.83-14.32-15.28a329.44,329.44,0,0,0-181.72-92.65,353.39,353.39,0,0,0-99,61.11C525,311.31,503.28,346.4,488.54,385.19Z"/></g></g><path class="cls-2" d="M398,805.18c131.25,105.52,320.93,95.17,439.93-24q7.44-7.42,14.32-15.27a266.15,266.15,0,0,1-86.65-99.76,201.17,201.17,0,0,1-19.75,23,198.47,198.47,0,0,1-141.26,58.51h-3c-52.39,28.1-105.54,49.58-164.18,54C424.59,802.72,411.34,804.18,398,805.18Z"/><g class="cls-3"><path class="cls-4" d="M405.73,566.87c-8.41,2-17.23,3.08-26.05,5.38-10.36,2.22-21.46,6.66-31.82,8.88-26.4,5.2-48.49,18.75-65.83,36.65a330.54,330.54,0,0,0,116,187.4c13.32-1,26.57-2.46,39.37-3.55,58.64-4.47,111.79-26,164.18-54A199.8,199.8,0,0,1,405.73,566.87Z"/><g class="cls-5"><path d="M405.73,566.87c-8.41,2-17.23,3.08-26.05,5.38-10.36,2.22-21.46,6.66-31.82,8.88-26.4,5.2-48.49,18.75-65.83,36.65a330.54,330.54,0,0,0,116,187.4c13.32-1,26.57-2.46,39.37-3.55,58.64-4.47,111.79-26,164.18-54A199.8,199.8,0,0,1,405.73,566.87Z"/></g></g></g></svg>