<svg width="642" height="609" viewBox="0 0 642 609" fill="none" xmlns="http://www.w3.org/2000/svg">
<g filter="url(#filter0_ddi)">
<rect x="110" y="110" width="422" height="389" rx="30" fill="#F1F3F6"/>
<rect x="111" y="111" width="420" height="387" rx="29" stroke="white" stroke-width="2"/>
</g>
<g filter="url(#filter1_ddi)">
<path d="M234.645 312.55C234.645 295.589 238.432 280.44 246.007 267.102C253.746 253.599 264.203 243.143 277.376 235.733C290.714 228.158 305.616 224.371 322.083 224.371C341.349 224.371 358.227 229.311 372.718 239.191C387.209 249.071 397.336 262.738 403.099 280.193H363.332C359.38 271.96 353.781 265.785 346.536 261.668C339.455 257.551 331.222 255.493 321.836 255.493C311.791 255.493 302.817 257.881 294.913 262.656C287.174 267.267 281.081 273.853 276.635 282.416C272.354 290.979 270.213 301.023 270.213 312.55C270.213 323.912 272.354 333.957 276.635 342.684C281.081 351.247 287.174 357.916 294.913 362.691C302.817 367.302 311.791 369.607 321.836 369.607C331.222 369.607 339.455 367.549 346.536 363.432C353.781 359.151 359.38 352.893 363.332 344.66H403.099C397.336 362.279 387.209 376.029 372.718 385.909C358.392 395.624 341.514 400.482 322.083 400.482C305.616 400.482 290.714 396.777 277.376 389.367C264.203 381.792 253.746 371.336 246.007 357.998C238.432 344.66 234.645 329.511 234.645 312.55Z" fill="#F1F3F6"/>
<path d="M246.007 267.102L244.272 266.107L244.268 266.114L246.007 267.102ZM277.376 235.733L278.357 237.476L278.364 237.472L277.376 235.733ZM403.099 280.193V282.193H405.866L404.998 279.566L403.099 280.193ZM363.332 280.193L361.529 281.058L362.074 282.193H363.332V280.193ZM346.536 261.668L345.531 263.397L345.539 263.402L345.548 263.407L346.536 261.668ZM294.913 262.656L295.937 264.374L295.947 264.368L294.913 262.656ZM276.635 282.416L274.86 281.494L274.853 281.508L274.846 281.522L276.635 282.416ZM276.635 342.684L274.839 343.565L274.849 343.585L274.86 343.606L276.635 342.684ZM294.913 362.691L293.863 364.393L293.884 364.406L293.905 364.419L294.913 362.691ZM346.536 363.432L347.541 365.161L347.547 365.157L347.553 365.154L346.536 363.432ZM363.332 344.66V342.66H362.074L361.529 343.795L363.332 344.66ZM403.099 344.66L405 345.282L405.857 342.66H403.099V344.66ZM372.718 385.909L373.841 387.564L373.845 387.561L372.718 385.909ZM277.376 389.367L276.379 391.101L276.392 391.108L276.405 391.115L277.376 389.367ZM246.007 357.998L244.268 358.986L244.272 358.994L244.277 359.002L246.007 357.998ZM236.645 312.55C236.645 295.898 240.36 281.096 247.746 268.09L244.268 266.114C236.505 279.784 232.645 295.281 232.645 312.55H236.645ZM247.742 268.097C255.308 254.897 265.507 244.704 278.357 237.476L276.395 233.99C262.898 241.582 252.185 252.301 244.272 266.107L247.742 268.097ZM278.364 237.472C291.379 230.081 305.936 226.371 322.083 226.371V222.371C305.296 222.371 290.05 226.236 276.388 233.994L278.364 237.472ZM322.083 226.371C340.988 226.371 357.465 231.212 371.591 240.843L373.845 237.539C358.989 227.41 341.71 222.371 322.083 222.371V226.371ZM371.591 240.843C385.701 250.463 395.567 263.761 401.2 280.82L404.998 279.566C399.104 261.715 388.717 247.679 373.845 237.539L371.591 240.843ZM403.099 278.193H363.332V282.193H403.099V278.193ZM365.135 279.328C361.024 270.764 355.158 264.266 347.524 259.929L345.548 263.407C352.405 267.303 357.736 273.156 361.529 281.058L365.135 279.328ZM347.541 259.939C340.113 255.62 331.523 253.493 321.836 253.493V257.493C330.921 257.493 338.798 259.482 345.531 263.397L347.541 259.939ZM321.836 253.493C311.46 253.493 302.122 255.964 293.879 260.944L295.947 264.368C303.512 259.797 312.123 257.493 321.836 257.493V253.493ZM293.889 260.938C285.808 265.753 279.465 272.626 274.86 281.494L278.41 283.338C282.697 275.081 288.54 268.781 295.937 264.374L293.889 260.938ZM274.846 281.522C270.4 290.413 268.213 300.775 268.213 312.55H272.213C272.213 301.271 274.307 291.544 278.424 283.31L274.846 281.522ZM268.213 312.55C268.213 324.166 270.403 334.521 274.839 343.565L278.431 341.803C274.305 333.393 272.213 323.658 272.213 312.55H268.213ZM274.86 343.606C279.462 352.469 285.797 359.416 293.863 364.393L295.963 360.989C288.551 356.415 282.7 350.025 278.41 341.762L274.86 343.606ZM293.905 364.419C302.144 369.225 311.473 371.607 321.836 371.607V367.607C312.11 367.607 303.49 365.379 295.921 360.963L293.905 364.419ZM321.836 371.607C331.523 371.607 340.113 369.48 347.541 365.161L345.531 361.703C338.798 365.618 330.921 367.607 321.836 367.607V371.607ZM347.553 365.154C355.169 360.654 361.027 354.084 365.135 345.525L361.529 343.795C357.733 351.703 352.394 357.647 345.519 361.71L347.553 365.154ZM363.332 346.66H403.099V342.66H363.332V346.66ZM401.198 344.038C395.564 361.264 385.696 374.64 371.591 384.257L373.845 387.561C388.722 377.418 399.108 363.295 405 345.282L401.198 344.038ZM371.595 384.254C357.64 393.717 341.164 398.482 322.083 398.482V402.482C341.863 402.482 359.144 397.531 373.841 387.564L371.595 384.254ZM322.083 398.482C305.929 398.482 291.365 394.851 278.347 387.619L276.405 391.115C290.063 398.703 305.304 402.482 322.083 402.482V398.482ZM278.373 387.633C265.508 380.236 255.303 370.034 247.737 356.994L244.277 359.002C252.19 372.638 262.897 383.349 276.379 391.101L278.373 387.633ZM247.746 357.01C240.36 344.004 236.645 329.202 236.645 312.55H232.645C232.645 329.819 236.505 345.316 244.268 358.986L247.746 357.01Z" fill="white"/>
</g>
<g clip-path="url(#clip0)" filter="url(#filter2_d)">
<path d="M112 413.357L227.891 371.481L237.796 375.182L530 283V347L381.917 394.259L370.526 388.539L112 477.357V413.357Z" fill="#FEE802"/>
<path d="M189.558 410.609L194.309 409.109L196.794 419.811C197.036 420.832 197.127 421.894 197.063 422.952C197.005 423.971 196.746 424.961 196.306 425.844C195.924 426.666 195.391 427.379 194.745 427.934C193.774 428.701 192.694 429.26 191.555 429.586C190.733 429.84 189.898 430.037 189.056 430.176C188.264 430.338 187.453 430.328 186.664 430.149C185.95 429.956 185.274 429.607 184.672 429.12C184.074 428.665 183.564 428.07 183.176 427.371C182.677 426.474 182.291 425.498 182.029 424.474L179.53 413.772L184.282 412.272L186.827 423.228C186.903 423.652 187.051 424.054 187.262 424.41C187.474 424.766 187.744 425.07 188.057 425.302C188.721 425.665 189.473 425.743 190.181 425.522C190.889 425.301 191.507 424.795 191.926 424.094C192.097 423.707 192.2 423.284 192.228 422.849C192.256 422.415 192.209 421.978 192.089 421.565L189.558 410.609Z" fill="black"/>
<path d="M197.49 408.107L201.935 406.699L210.044 414.823L207.722 404.885L212.208 403.471L216.388 421.43L211.907 422.822L203.848 414.779L206.138 424.641L201.661 426.071L197.49 408.107Z" fill="black"/>
<path d="M215.446 402.437L222.519 400.2C223.66 399.786 224.861 399.65 226.049 399.799C226.979 399.952 227.862 400.372 228.617 401.023C229.389 401.694 230.032 402.544 230.508 403.52C231.028 404.573 231.426 405.702 231.692 406.878C232.096 408.379 232.254 409.955 232.157 411.524C232.051 412.641 231.733 413.715 231.228 414.671C230.78 415.537 230.156 416.26 229.412 416.778C228.56 417.375 227.645 417.841 226.69 418.164L219.617 420.395L215.446 402.437ZM221.154 404.999L223.43 414.812L224.595 414.444C225.332 414.273 226.027 413.912 226.63 413.388C227.013 412.943 227.251 412.357 227.303 411.73C227.359 410.63 227.235 409.527 226.936 408.481C226.493 406.582 225.925 405.363 225.232 404.825C224.535 404.284 223.574 404.219 222.338 404.609L221.154 404.999Z" fill="black"/>
<path d="M232.11 397.173L244.868 393.143L245.76 396.978L237.771 399.502L238.436 402.356L245.844 400.016L246.693 403.682L239.286 406.033L240.108 409.569L248.324 406.975L249.253 411.042L236.248 415.148L232.11 397.173Z" fill="black"/>
<path d="M251.895 410.203L247.715 392.244L255.648 389.737C256.775 389.329 257.947 389.119 259.127 389.114C259.958 389.156 260.753 389.522 261.384 390.154C262.079 390.865 262.566 391.812 262.777 392.862C263.004 393.757 263.022 394.707 262.828 395.613C262.63 396.452 262.253 397.22 261.732 397.844C261.29 398.347 260.782 398.766 260.227 399.085C261.097 399.038 261.948 399.387 262.601 400.059C262.934 400.326 263.245 400.629 263.53 400.964L267.041 405.443L261.672 407.116L257.85 402.431C257.525 401.971 257.124 401.594 256.67 401.321C256.264 401.151 255.822 401.134 255.407 401.272L254.984 401.402L256.679 408.692L251.895 410.203ZM254.194 398.012L256.201 397.379C256.618 397.204 257.022 396.989 257.408 396.734C257.7 396.567 257.929 396.279 258.049 395.927C258.187 395.503 258.189 395.035 258.056 394.609C257.924 394.182 257.664 393.826 257.325 393.604C256.935 393.393 256.308 393.425 255.439 393.701L253.349 394.362L254.194 398.012Z" fill="black"/>
<path d="M284.295 392.082L288.809 392.239C288.865 393.546 288.684 394.852 288.28 396.073C287.902 397.158 287.295 398.114 286.515 398.852C285.548 399.7 284.441 400.305 283.264 400.628C281.873 401.129 280.407 401.28 278.963 401.072C277.661 400.774 276.464 400.033 275.521 398.944C274.311 397.541 273.469 395.766 273.092 393.826C272.402 390.854 272.557 388.356 273.557 386.33C274.557 384.305 276.289 382.902 278.754 382.122C280.689 381.512 282.321 381.489 283.649 382.052C285.088 382.73 286.299 383.935 287.1 385.486L283.152 387.901C282.953 387.506 282.702 387.15 282.409 386.845C282.06 386.513 281.647 386.282 281.206 386.173C280.476 386.016 279.722 386.168 279.08 386.602C278.438 387.036 277.95 387.723 277.704 388.54C277.444 389.428 277.502 390.676 277.876 392.282C278.341 394.275 278.912 395.532 279.604 396.127C280.306 396.626 281.147 396.788 281.95 396.578C282.752 396.367 283.453 395.802 283.905 395.001C284.251 394.084 284.386 393.078 284.295 392.082V392.082Z" fill="black"/>
<path d="M289.803 388.61C289.119 385.675 289.289 383.169 290.314 381.093C291.339 379.017 293.101 377.582 295.6 376.788C298.163 375.975 300.331 376.156 302.102 377.329C303.873 378.503 305.088 380.532 305.748 383.417C306.22 385.179 306.32 387.048 306.04 388.865C305.756 390.377 305.095 391.758 304.141 392.835C303.005 394.048 301.619 394.899 300.119 395.304C298.651 395.835 297.1 395.97 295.581 395.7C294.262 395.399 293.05 394.645 292.102 393.533C290.97 392.164 290.176 390.463 289.803 388.61V388.61ZM294.568 387.132C294.993 388.937 295.584 390.149 296.343 390.766C296.734 391.043 297.17 391.226 297.624 391.302C298.078 391.378 298.54 391.346 298.983 391.209C299.426 391.071 299.841 390.83 300.202 390.501C300.563 390.172 300.863 389.761 301.085 389.293C301.459 388.34 301.416 386.859 300.955 384.852C300.558 383.162 299.978 382.019 299.213 381.424C298.826 381.128 298.387 380.936 297.928 380.863C297.469 380.79 297.002 380.837 296.561 381.001C296.119 381.122 295.707 381.357 295.354 381.69C295.002 382.023 294.719 382.445 294.527 382.924C294.133 383.888 294.147 385.291 294.568 387.132V387.132Z" fill="black"/>
<path d="M306.272 373.755L310.717 372.352L318.822 380.476L316.5 370.538L320.986 369.119L325.166 387.083L320.679 388.497L312.621 380.46L314.916 390.327L310.443 391.741L306.272 373.755Z" fill="black"/>
<path d="M326.128 380.389L330.577 378.629C330.791 379.316 331.154 379.926 331.631 380.4C331.967 380.683 332.356 380.868 332.765 380.942C333.174 381.015 333.593 380.974 333.986 380.823C334.56 380.69 335.072 380.316 335.426 379.772C335.56 379.565 335.653 379.326 335.696 379.072C335.739 378.817 335.733 378.555 335.676 378.304C335.618 378.065 335.514 377.844 335.374 377.657C335.233 377.469 335.059 377.321 334.864 377.221C334.427 376.965 333.534 376.874 332.184 376.95C329.97 377.059 328.312 376.8 327.21 376.176C326.679 375.889 326.21 375.468 325.838 374.942C325.466 374.416 325.2 373.799 325.059 373.138C324.846 372.205 324.875 371.219 325.143 370.305C325.451 369.273 326.015 368.37 326.764 367.711C327.851 366.804 329.083 366.158 330.386 365.81C332.356 365.193 333.955 365.146 335.184 365.669C336.413 366.193 337.342 367.357 337.971 369.162L333.559 370.885C333.339 370.231 332.927 369.69 332.398 369.357C331.849 369.107 331.242 369.09 330.684 369.309C330.231 369.409 329.823 369.693 329.532 370.11C329.428 370.269 329.357 370.454 329.324 370.65C329.291 370.847 329.297 371.049 329.341 371.242C329.381 371.393 329.449 371.532 329.54 371.648C329.632 371.765 329.745 371.855 329.871 371.914C330.438 372.112 331.035 372.165 331.622 372.071C333.235 371.908 334.86 371.966 336.461 372.244C337.366 372.423 338.209 372.898 338.89 373.614C339.489 374.286 339.915 375.139 340.121 376.078C340.39 377.21 340.363 378.41 340.042 379.523C339.712 380.685 339.093 381.707 338.263 382.458C337.211 383.375 336.008 384.03 334.729 384.381C332.11 385.211 330.159 385.197 328.877 384.337C327.581 383.453 326.604 382.05 326.128 380.389Z" fill="black"/>
<path d="M338.621 363.541L353.089 358.97L354.12 363.405L349.266 364.938L352.406 378.478L347.659 379.967L344.52 366.427L339.666 367.96L338.621 363.541Z" fill="black"/>
<path d="M359.479 376.246L355.299 358.282L363.232 355.78C364.354 355.362 365.523 355.141 366.701 355.125C367.543 355.174 368.346 355.556 368.977 356.208C369.449 356.672 369.835 357.244 370.11 357.888C370.385 358.533 370.543 359.236 370.575 359.955C370.608 360.674 370.513 361.393 370.297 362.068C370.081 362.742 369.749 363.358 369.321 363.877C368.877 364.378 368.37 364.796 367.816 365.117C368.29 365.126 368.759 365.217 369.209 365.388C369.558 365.577 369.886 365.811 370.189 366.086C370.524 366.353 370.835 366.658 371.118 366.996L374.634 371.47L369.256 373.17L365.438 368.485C365.114 368.022 364.71 367.642 364.254 367.37C363.847 367.202 363.406 367.185 362.991 367.321L362.573 367.456L364.263 374.746L359.479 376.246ZM361.778 364.05L363.785 363.416C364.202 363.247 364.605 363.031 364.988 362.772C365.281 362.608 365.511 362.319 365.629 361.965C365.769 361.542 365.773 361.074 365.64 360.647C365.506 360.221 365.245 359.866 364.904 359.647C364.519 359.436 363.887 359.463 363.018 359.739L360.928 360.4L361.778 364.05Z" fill="black"/>
<path d="M381.638 349.958L386.385 348.458L388.869 359.16C389.115 360.18 389.208 361.243 389.143 362.301C389.083 363.319 388.824 364.308 388.386 365.193C388.001 366.014 387.467 366.727 386.821 367.283C385.85 368.051 384.77 368.61 383.63 368.935C382.81 369.19 381.977 369.387 381.136 369.525C380.346 369.695 379.535 369.695 378.744 369.525C378.03 369.333 377.354 368.984 376.752 368.496C376.154 368.041 375.645 367.446 375.256 366.747C374.756 365.851 374.37 364.875 374.109 363.85L371.625 353.121L376.371 351.621L378.916 362.577C378.993 363.001 379.142 363.403 379.354 363.76C379.566 364.116 379.838 364.419 380.152 364.651C380.475 364.855 380.83 364.98 381.196 365.017C381.562 365.054 381.931 365.004 382.279 364.868C382.637 364.78 382.975 364.608 383.275 364.363C383.574 364.119 383.828 363.806 384.021 363.443C384.192 363.056 384.294 362.633 384.322 362.198C384.35 361.764 384.303 361.327 384.183 360.914L381.638 349.958Z" fill="black"/>
<path d="M402.259 354.838L406.769 354.989C406.827 356.297 406.646 357.604 406.239 358.824C405.863 359.908 405.257 360.864 404.479 361.602C403.514 362.452 402.406 363.058 401.228 363.378C399.838 363.882 398.372 364.033 396.927 363.823C395.625 363.525 394.426 362.787 393.481 361.7C392.273 360.293 391.431 358.517 391.052 356.576C390.365 353.608 390.512 351.112 391.493 349.086C392.475 347.061 394.207 345.656 396.69 344.873C398.632 344.263 400.264 344.239 401.586 344.802C403.027 345.479 404.24 346.684 405.041 348.236L401.089 350.651C400.89 350.258 400.641 349.902 400.35 349.595C399.999 349.263 399.585 349.033 399.143 348.924C398.68 348.817 398.203 348.84 397.749 348.989C397.253 349.121 396.795 349.403 396.421 349.807C396.048 350.211 395.772 350.723 395.622 351.29C395.362 352.179 395.418 353.426 395.789 355.033C396.254 357.026 396.83 358.309 397.517 358.883C397.87 359.167 398.273 359.352 398.697 359.425C399.121 359.497 399.553 359.454 399.96 359.3C400.347 359.213 400.714 359.03 401.034 358.763C401.355 358.495 401.622 358.15 401.818 357.751C402.182 356.842 402.334 355.837 402.259 354.838V354.838Z" fill="black"/>
<path d="M405.194 342.522L419.648 337.951L420.679 342.387L415.825 343.92L418.965 357.459L414.205 358.959L411.065 345.42L406.211 346.952L405.194 342.522Z" fill="black"/>
<path d="M422.007 337.209L426.777 335.704L430.957 353.668L426.187 355.174L422.007 337.209Z" fill="black"/>
<path d="M431.682 343.811C431 340.876 431.171 338.37 432.193 336.294C433.214 334.218 434.975 332.787 437.473 332C440.037 331.187 442.204 331.368 443.976 332.541C445.747 333.715 446.963 335.744 447.626 338.628C448.097 340.391 448.196 342.26 447.914 344.077C447.633 345.591 446.972 346.973 446.014 348.046C444.879 349.258 443.496 350.109 441.997 350.516C440.53 351.047 438.978 351.182 437.459 350.911C436.138 350.612 434.925 349.858 433.976 348.745C432.844 347.372 432.051 345.667 431.682 343.811V343.811ZM436.447 342.333C436.865 344.142 437.459 345.355 438.221 345.967C438.612 346.244 439.048 346.426 439.501 346.502C439.955 346.578 440.417 346.547 440.859 346.409C441.302 346.271 441.716 346.031 442.077 345.702C442.438 345.372 442.737 344.962 442.958 344.494C443.339 343.54 443.296 342.06 442.828 340.053C442.438 338.363 441.858 337.215 441.091 336.625C440.704 336.329 440.265 336.137 439.806 336.064C439.347 335.991 438.88 336.038 438.439 336.202C437.997 336.321 437.584 336.556 437.232 336.889C436.879 337.222 436.596 337.645 436.405 338.125C436.006 339.1 436.02 340.502 436.447 342.333Z" fill="black"/>
<path d="M448.146 328.956L452.591 327.553L460.7 335.677L458.378 325.739L462.864 324.32L467.044 342.284L462.558 343.698L454.504 335.628L456.803 345.506L452.326 346.92L448.146 328.956Z" fill="black"/>
<path d="M116.087 434.157L112 435.505V437.444L115.488 453.6L120.258 452.094L116.087 434.157Z" fill="black"/>
<path d="M121.01 442.259C120.332 439.324 120.502 436.82 121.521 434.747C122.54 432.675 124.302 431.241 126.807 430.447C129.37 429.638 131.538 429.819 133.309 430.989C135.08 432.159 136.295 434.188 136.955 437.076C137.427 438.84 137.527 440.711 137.247 442.53C136.963 444.041 136.303 445.42 135.348 446.494C134.211 447.708 132.826 448.56 131.326 448.969C129.857 449.495 128.306 449.628 126.788 449.359C125.468 449.061 124.256 448.306 123.309 447.193C122.174 445.821 121.38 444.116 121.01 442.259V442.259ZM125.775 440.78C126.198 442.595 126.793 443.802 127.55 444.414C127.941 444.692 128.377 444.875 128.83 444.951C129.284 445.028 129.746 444.996 130.189 444.859C130.632 444.722 131.046 444.482 131.408 444.153C131.769 443.825 132.07 443.414 132.292 442.947C132.672 441.994 132.626 440.51 132.162 438.5C131.767 436.811 131.191 435.668 130.425 435.072C130.037 434.776 129.598 434.585 129.139 434.513C128.68 434.44 128.213 434.489 127.773 434.655C127.331 434.774 126.918 435.008 126.566 435.34C126.213 435.672 125.93 436.094 125.738 436.572C125.323 437.547 125.328 438.95 125.752 440.78H125.775Z" fill="black"/>
<path d="M137.456 427.409L141.901 426.001L150.01 434.124L147.688 424.187L152.175 422.773L156.355 440.732L151.868 442.151L143.815 434.092L146.09 443.943L141.613 445.357L137.456 427.409Z" fill="black"/>
<path d="M501.362 312.589L506.109 311.089L508.594 321.791C508.837 322.81 508.93 323.871 508.868 324.927C508.805 325.947 508.545 326.938 508.106 327.824C507.722 328.645 507.19 329.358 506.545 329.914C505.574 330.68 504.493 331.239 503.355 331.566C502.532 331.818 501.698 332.015 500.856 332.157C500.064 332.315 499.254 332.306 498.464 332.129C497.749 331.936 497.073 331.585 496.472 331.095C495.873 330.642 495.363 330.046 494.976 329.346C494.477 328.449 494.093 327.473 493.834 326.448L491.349 315.747L496.095 314.252L498.641 325.208C498.717 325.632 498.865 326.034 499.076 326.39C499.288 326.746 499.558 327.05 499.871 327.282C500.536 327.643 501.288 327.719 501.995 327.497C502.703 327.275 503.321 326.77 503.74 326.069C503.911 325.683 504.013 325.26 504.041 324.827C504.069 324.393 504.022 323.957 503.903 323.546L501.362 312.589Z" fill="black"/>
<path d="M509.286 310.082L513.726 308.679L521.835 316.803L519.513 306.865L523.999 305.446L528.179 323.41L523.707 324.797L515.649 316.77L517.938 326.633L513.466 328.046L509.286 310.082Z" fill="black"/>
</g>
<defs>
<filter id="filter0_ddi" x="0" y="0" width="642" height="609" filterUnits="userSpaceOnUse" color-interpolation-filters="sRGB">
<feFlood flood-opacity="0" result="BackgroundImageFix"/>
<feColorMatrix in="SourceAlpha" type="matrix" values="0 0 0 0 0 0 0 0 0 0 0 0 0 0 0 0 0 0 127 0"/>
<feOffset dx="30" dy="30"/>
<feGaussianBlur stdDeviation="40"/>
<feColorMatrix type="matrix" values="0 0 0 0 0.215686 0 0 0 0 0.329412 0 0 0 0 0.666667 0 0 0 0.1 0"/>
<feBlend mode="normal" in2="BackgroundImageFix" result="effect1_dropShadow"/>
<feColorMatrix in="SourceAlpha" type="matrix" values="0 0 0 0 0 0 0 0 0 0 0 0 0 0 0 0 0 0 127 0"/>
<feOffset dx="-30" dy="-30"/>
<feGaussianBlur stdDeviation="40"/>
<feColorMatrix type="matrix" values="0 0 0 0 1 0 0 0 0 1 0 0 0 0 1 0 0 0 1 0"/>
<feBlend mode="normal" in2="effect1_dropShadow" result="effect2_dropShadow"/>
<feBlend mode="normal" in="SourceGraphic" in2="effect2_dropShadow" result="shape"/>
<feColorMatrix in="SourceAlpha" type="matrix" values="0 0 0 0 0 0 0 0 0 0 0 0 0 0 0 0 0 0 127 0" result="hardAlpha"/>
<feOffset dx="4" dy="4"/>
<feGaussianBlur stdDeviation="10"/>
<feComposite in2="hardAlpha" operator="arithmetic" k2="-1" k3="1"/>
<feColorMatrix type="matrix" values="0 0 0 0 1 0 0 0 0 1 0 0 0 0 1 0 0 0 0.5 0"/>
<feBlend mode="normal" in2="shape" result="effect3_innerShadow"/>
</filter>
<filter id="filter1_ddi" x="122.645" y="112.371" width="393.221" height="400.111" filterUnits="userSpaceOnUse" color-interpolation-filters="sRGB">
<feFlood flood-opacity="0" result="BackgroundImageFix"/>
<feColorMatrix in="SourceAlpha" type="matrix" values="0 0 0 0 0 0 0 0 0 0 0 0 0 0 0 0 0 0 127 0"/>
<feOffset dx="30" dy="30"/>
<feGaussianBlur stdDeviation="40"/>
<feColorMatrix type="matrix" values="0 0 0 0 0.215686 0 0 0 0 0.329412 0 0 0 0 0.666667 0 0 0 0.1 0"/>
<feBlend mode="normal" in2="BackgroundImageFix" result="effect1_dropShadow"/>
<feColorMatrix in="SourceAlpha" type="matrix" values="0 0 0 0 0 0 0 0 0 0 0 0 0 0 0 0 0 0 127 0"/>
<feOffset dx="-30" dy="-30"/>
<feGaussianBlur stdDeviation="40"/>
<feColorMatrix type="matrix" values="0 0 0 0 1 0 0 0 0 1 0 0 0 0 1 0 0 0 1 0"/>
<feBlend mode="normal" in2="effect1_dropShadow" result="effect2_dropShadow"/>
<feBlend mode="normal" in="SourceGraphic" in2="effect2_dropShadow" result="shape"/>
<feColorMatrix in="SourceAlpha" type="matrix" values="0 0 0 0 0 0 0 0 0 0 0 0 0 0 0 0 0 0 127 0" result="hardAlpha"/>
<feOffset dx="4" dy="4"/>
<feGaussianBlur stdDeviation="10"/>
<feComposite in2="hardAlpha" operator="arithmetic" k2="-1" k3="1"/>
<feColorMatrix type="matrix" values="0 0 0 0 1 0 0 0 0 1 0 0 0 0 1 0 0 0 0.5 0"/>
<feBlend mode="normal" in2="shape" result="effect3_innerShadow"/>
</filter>
<filter id="filter2_d" x="107" y="285" width="428" height="191" filterUnits="userSpaceOnUse" color-interpolation-filters="sRGB">
<feFlood flood-opacity="0" result="BackgroundImageFix"/>
<feColorMatrix in="SourceAlpha" type="matrix" values="0 0 0 0 0 0 0 0 0 0 0 0 0 0 0 0 0 0 127 0"/>
<feOffset dy="3"/>
<feGaussianBlur stdDeviation="2.5"/>
<feColorMatrix type="matrix" values="0 0 0 0 0 0 0 0 0 0 0 0 0 0 0 0 0 0 0.05 0"/>
<feBlend mode="normal" in2="BackgroundImageFix" result="effect1_dropShadow"/>
<feBlend mode="normal" in="SourceGraphic" in2="effect1_dropShadow" result="shape"/>
</filter>
<clipPath id="clip0">
<rect width="418" height="181" fill="white" transform="translate(112 287)"/>
</clipPath>
</defs>
</svg>
