<svg width="642" height="609" viewBox="0 0 642 609" fill="none" xmlns="http://www.w3.org/2000/svg">
<g filter="url(#filter0_ddi)">
<rect x="110" y="110" width="422" height="389" rx="30" fill="#F1F3F6"/>
<rect x="111" y="111" width="420" height="387" rx="29" stroke="white" stroke-width="2"/>
</g>
<g filter="url(#filter1_ddi)">
<path d="M234.645 312.55C234.645 295.589 238.432 280.44 246.007 267.102C253.746 253.599 264.203 243.143 277.376 235.733C290.714 228.158 305.616 224.371 322.083 224.371C341.349 224.371 358.227 229.311 372.718 239.191C387.209 249.071 397.336 262.738 403.099 280.193H363.332C359.38 271.96 353.781 265.785 346.536 261.668C339.455 257.551 331.222 255.493 321.836 255.493C311.791 255.493 302.817 257.881 294.913 262.656C287.174 267.267 281.081 273.853 276.635 282.416C272.354 290.979 270.213 301.023 270.213 312.55C270.213 323.912 272.354 333.957 276.635 342.684C281.081 351.247 287.174 357.916 294.913 362.691C302.817 367.302 311.791 369.607 321.836 369.607C331.222 369.607 339.455 367.549 346.536 363.432C353.781 359.151 359.38 352.893 363.332 344.66H403.099C397.336 362.279 387.209 376.029 372.718 385.909C358.392 395.624 341.514 400.482 322.083 400.482C305.616 400.482 290.714 396.777 277.376 389.367C264.203 381.792 253.746 371.336 246.007 357.998C238.432 344.66 234.645 329.511 234.645 312.55Z" fill="#F1F3F6"/>
<path d="M246.007 267.102L244.272 266.107L244.268 266.114L246.007 267.102ZM277.376 235.733L278.357 237.476L278.364 237.472L277.376 235.733ZM403.099 280.193V282.193H405.866L404.998 279.566L403.099 280.193ZM363.332 280.193L361.529 281.058L362.074 282.193H363.332V280.193ZM346.536 261.668L345.531 263.397L345.539 263.402L345.548 263.407L346.536 261.668ZM294.913 262.656L295.937 264.374L295.947 264.368L294.913 262.656ZM276.635 282.416L274.86 281.494L274.853 281.508L274.846 281.522L276.635 282.416ZM276.635 342.684L274.839 343.565L274.849 343.585L274.86 343.606L276.635 342.684ZM294.913 362.691L293.863 364.393L293.884 364.406L293.905 364.419L294.913 362.691ZM346.536 363.432L347.541 365.161L347.547 365.157L347.553 365.154L346.536 363.432ZM363.332 344.66V342.66H362.074L361.529 343.795L363.332 344.66ZM403.099 344.66L405 345.282L405.857 342.66H403.099V344.66ZM372.718 385.909L373.841 387.564L373.845 387.561L372.718 385.909ZM277.376 389.367L276.379 391.101L276.392 391.108L276.405 391.115L277.376 389.367ZM246.007 357.998L244.268 358.986L244.272 358.994L244.277 359.002L246.007 357.998ZM236.645 312.55C236.645 295.898 240.36 281.096 247.746 268.09L244.268 266.114C236.505 279.784 232.645 295.281 232.645 312.55H236.645ZM247.742 268.097C255.308 254.897 265.507 244.704 278.357 237.476L276.395 233.99C262.898 241.582 252.185 252.301 244.272 266.107L247.742 268.097ZM278.364 237.472C291.379 230.081 305.936 226.371 322.083 226.371V222.371C305.296 222.371 290.05 226.236 276.388 233.994L278.364 237.472ZM322.083 226.371C340.988 226.371 357.465 231.212 371.591 240.843L373.845 237.539C358.989 227.41 341.71 222.371 322.083 222.371V226.371ZM371.591 240.843C385.701 250.463 395.567 263.761 401.2 280.82L404.998 279.566C399.104 261.715 388.717 247.679 373.845 237.539L371.591 240.843ZM403.099 278.193H363.332V282.193H403.099V278.193ZM365.135 279.328C361.024 270.764 355.158 264.266 347.524 259.929L345.548 263.407C352.405 267.303 357.736 273.156 361.529 281.058L365.135 279.328ZM347.541 259.939C340.113 255.62 331.523 253.493 321.836 253.493V257.493C330.921 257.493 338.798 259.482 345.531 263.397L347.541 259.939ZM321.836 253.493C311.46 253.493 302.122 255.964 293.879 260.944L295.947 264.368C303.512 259.797 312.123 257.493 321.836 257.493V253.493ZM293.889 260.938C285.808 265.753 279.465 272.626 274.86 281.494L278.41 283.338C282.697 275.081 288.54 268.781 295.937 264.374L293.889 260.938ZM274.846 281.522C270.4 290.413 268.213 300.775 268.213 312.55H272.213C272.213 301.271 274.307 291.544 278.424 283.31L274.846 281.522ZM268.213 312.55C268.213 324.166 270.403 334.521 274.839 343.565L278.431 341.803C274.305 333.393 272.213 323.658 272.213 312.55H268.213ZM274.86 343.606C279.462 352.469 285.797 359.416 293.863 364.393L295.963 360.989C288.551 356.415 282.7 350.025 278.41 341.762L274.86 343.606ZM293.905 364.419C302.144 369.225 311.473 371.607 321.836 371.607V367.607C312.11 367.607 303.49 365.379 295.921 360.963L293.905 364.419ZM321.836 371.607C331.523 371.607 340.113 369.48 347.541 365.161L345.531 361.703C338.798 365.618 330.921 367.607 321.836 367.607V371.607ZM347.553 365.154C355.169 360.654 361.027 354.084 365.135 345.525L361.529 343.795C357.733 351.703 352.394 357.647 345.519 361.71L347.553 365.154ZM363.332 346.66H403.099V342.66H363.332V346.66ZM401.198 344.038C395.564 361.264 385.696 374.64 371.591 384.257L373.845 387.561C388.722 377.418 399.108 363.295 405 345.282L401.198 344.038ZM371.595 384.254C357.64 393.717 341.164 398.482 322.083 398.482V402.482C341.863 402.482 359.144 397.531 373.841 387.564L371.595 384.254ZM322.083 398.482C305.929 398.482 291.365 394.851 278.347 387.619L276.405 391.115C290.063 398.703 305.304 402.482 322.083 402.482V398.482ZM278.373 387.633C265.508 380.236 255.303 370.034 247.737 356.994L244.277 359.002C252.19 372.638 262.897 383.349 276.379 391.101L278.373 387.633ZM247.746 357.01C240.36 344.004 236.645 329.202 236.645 312.55H232.645C232.645 329.819 236.505 345.316 244.268 358.986L247.746 357.01Z" fill="white"/>
</g>
<defs>
<filter id="filter0_ddi" x="0" y="0" width="642" height="609" filterUnits="userSpaceOnUse" color-interpolation-filters="sRGB">
<feFlood flood-opacity="0" result="BackgroundImageFix"/>
<feColorMatrix in="SourceAlpha" type="matrix" values="0 0 0 0 0 0 0 0 0 0 0 0 0 0 0 0 0 0 127 0"/>
<feOffset dx="30" dy="30"/>
<feGaussianBlur stdDeviation="40"/>
<feColorMatrix type="matrix" values="0 0 0 0 0.215686 0 0 0 0 0.329412 0 0 0 0 0.666667 0 0 0 0.1 0"/>
<feBlend mode="normal" in2="BackgroundImageFix" result="effect1_dropShadow"/>
<feColorMatrix in="SourceAlpha" type="matrix" values="0 0 0 0 0 0 0 0 0 0 0 0 0 0 0 0 0 0 127 0"/>
<feOffset dx="-30" dy="-30"/>
<feGaussianBlur stdDeviation="40"/>
<feColorMatrix type="matrix" values="0 0 0 0 1 0 0 0 0 1 0 0 0 0 1 0 0 0 1 0"/>
<feBlend mode="normal" in2="effect1_dropShadow" result="effect2_dropShadow"/>
<feBlend mode="normal" in="SourceGraphic" in2="effect2_dropShadow" result="shape"/>
<feColorMatrix in="SourceAlpha" type="matrix" values="0 0 0 0 0 0 0 0 0 0 0 0 0 0 0 0 0 0 127 0" result="hardAlpha"/>
<feOffset dx="4" dy="4"/>
<feGaussianBlur stdDeviation="10"/>
<feComposite in2="hardAlpha" operator="arithmetic" k2="-1" k3="1"/>
<feColorMatrix type="matrix" values="0 0 0 0 1 0 0 0 0 1 0 0 0 0 1 0 0 0 0.5 0"/>
<feBlend mode="normal" in2="shape" result="effect3_innerShadow"/>
</filter>
<filter id="filter1_ddi" x="122.645" y="112.371" width="393.221" height="400.111" filterUnits="userSpaceOnUse" color-interpolation-filters="sRGB">
<feFlood flood-opacity="0" result="BackgroundImageFix"/>
<feColorMatrix in="SourceAlpha" type="matrix" values="0 0 0 0 0 0 0 0 0 0 0 0 0 0 0 0 0 0 127 0"/>
<feOffset dx="30" dy="30"/>
<feGaussianBlur stdDeviation="40"/>
<feColorMatrix type="matrix" values="0 0 0 0 0.215686 0 0 0 0 0.329412 0 0 0 0 0.666667 0 0 0 0.1 0"/>
<feBlend mode="normal" in2="BackgroundImageFix" result="effect1_dropShadow"/>
<feColorMatrix in="SourceAlpha" type="matrix" values="0 0 0 0 0 0 0 0 0 0 0 0 0 0 0 0 0 0 127 0"/>
<feOffset dx="-30" dy="-30"/>
<feGaussianBlur stdDeviation="40"/>
<feColorMatrix type="matrix" values="0 0 0 0 1 0 0 0 0 1 0 0 0 0 1 0 0 0 1 0"/>
<feBlend mode="normal" in2="effect1_dropShadow" result="effect2_dropShadow"/>
<feBlend mode="normal" in="SourceGraphic" in2="effect2_dropShadow" result="shape"/>
<feColorMatrix in="SourceAlpha" type="matrix" values="0 0 0 0 0 0 0 0 0 0 0 0 0 0 0 0 0 0 127 0" result="hardAlpha"/>
<feOffset dx="4" dy="4"/>
<feGaussianBlur stdDeviation="10"/>
<feComposite in2="hardAlpha" operator="arithmetic" k2="-1" k3="1"/>
<feColorMatrix type="matrix" values="0 0 0 0 1 0 0 0 0 1 0 0 0 0 1 0 0 0 0.5 0"/>
<feBlend mode="normal" in2="shape" result="effect3_innerShadow"/>
</filter>
</defs>
</svg>
